Coordinates
version=1
nRows=17
nColumns=24
inDegrees=yes

Units are S.I. units (second, meters, Newtons, ...)
Angles are in degrees.

endheader
time	pelvis_tilt	pelvis_list	pelvis_rotation	pelvis_tx	pelvis_ty	pelvis_tz	hip_flexion_r	hip_adduction_r	hip_rotation_r	knee_angle_r	ankle_angle_r	subtalar_angle_r	mtp_angle_r	hip_flexion_l	hip_adduction_l	hip_rotation_l	knee_angle_l	ankle_angle_l	subtalar_angle_l	mtp_angle_l	lumbar_extension	lumbar_bending	lumbar_rotation
      6.50000000	     14.54510574	     -8.02343021	     18.44876046	      2.46008353	      0.93191343	     -0.21124344	     -7.13626206	     14.71442113	     -6.64623813	    -12.15628940	     21.34643034	     -7.37376509	      0.00000000	      1.24318427	    -14.38299665	      9.64787336	    -69.23416771	      8.68983104	     -2.54936253	      0.00000000	    -24.68196574	     14.38673566	    -14.85854453
      6.50500000	     14.52424053	     -7.79229150	     18.29752192	      2.46556902	      0.93251657	     -0.21082474	     -7.73002088	     14.59843150	     -6.53430009	    -11.81005104	     21.44941939	     -7.29392221	      0.00000000	      1.93691857	    -13.84562770	      9.54431576	    -69.34179293	      9.33095501	     -2.66927381	      0.00000000	    -24.81671111	     14.07426937	    -14.56447714
      6.51000000	     14.54586244	     -7.56198904	     18.00187978	      2.47101568	      0.93314982	     -0.21031378	     -8.36749805	     14.45972249	     -6.33230382	    -11.50913878	     21.64739529	     -7.07170781	      0.00000000	      2.51701831	    -13.32220035	      9.26678590	    -69.34888234	      9.96117006	     -2.83663751	      0.00000000	    -25.04164636	     13.72888277	    -14.11574499
      6.51500000	     14.58192063	     -7.33070961	     17.71201206	      2.47646738	      0.93380871	     -0.20982190	     -9.03068892	     14.31943627	     -6.15500253	    -11.17808497	     21.73560720	     -6.88853187	      0.00000000	      3.06681497	    -12.80847751	      8.98650275	    -69.26098061	     10.58509061	     -2.89931255	      0.00000000	    -25.27495034	     13.38468903	    -13.64784318
      6.52000000	     14.58392562	     -7.11686840	     17.45943503	      2.48187604	      0.93435233	     -0.20935741	     -9.63984313	     14.18772172	     -6.02430529	    -10.85277653	     21.88403117	     -6.69460443	      0.00000000	      3.67035765	    -12.30548910	      8.74629154	    -69.11696017	     11.22521721	     -2.86378644	      0.00000000	    -25.45406090	     13.06364851	    -13.25387575
      6.52500000	     14.59048717	     -6.91053311	     17.16749384	      2.48727967	      0.93490338	     -0.20888606	    -10.25512776	     14.04756945	     -5.90185622	    -10.52814196	     21.98127376	     -6.45983468	      0.00000000	      4.24061788	    -11.81652454	      8.45661183	    -68.87861547	     11.84183628	     -2.79542638	      0.00000000	    -25.64330374	     12.73685186	    -12.79882970
      6.53000000	     14.61029144	     -6.70572526	     16.86743198	      2.49270959	      0.93543507	     -0.20840659	    -10.89175940	     13.90796760	     -5.77103858	    -10.18829283	     22.09166872	     -6.22881174	      0.00000000	      4.77721402	    -11.34402935	      8.14809233	    -68.55535544	     12.43632590	     -2.66518460	      0.00000000	    -25.83534691	     12.40746135	    -12.33459954
      6.53500000	     14.60826017	     -6.52544478	     16.57662537	      2.49805122	      0.93589664	     -0.20796002	    -11.47941839	     13.77783876	     -5.68772223	     -9.87021279	     22.19511915	     -5.96838443	      0.00000000	      5.34175703	    -10.88877527	      7.85642246	    -68.16265809	     13.04134970	     -2.48479907	      0.00000000	    -26.00873172	     12.10840488	    -11.89741701
      6.54000000	     14.60011615	     -6.35599488	     16.28466845	      2.50337734	      0.93630528	     -0.20752023	    -12.05306464	     13.65054779	     -5.61554927	     -9.55829498	     22.30477802	     -5.69259197	      0.00000000	      5.90255082	    -10.45182836	      7.55646387	    -67.69486135	     13.64224346	     -2.25791342	      0.00000000	    -26.16823248	     11.81910891	    -11.45824024
      6.54500000	     14.60446936	     -6.19285671	     15.97065680	      2.50871994	      0.93671503	     -0.20707317	    -12.64483052	     13.52278588	     -5.53890211	     -9.23586147	     22.39632298	     -5.40818660	      0.00000000	      6.42260053	    -10.03325758	      7.23327361	    -67.13457103	     14.20392679	     -2.00600577	      0.00000000	    -26.33716298	     11.52854653	    -10.99016507
      6.55000000	     14.62653561	     -6.02938835	     15.65108961	      2.51408635	      0.93711983	     -0.20662876	    -13.26018526	     13.39387303	     -5.45783401	     -8.90575538	     22.47653935	     -5.13031825	      0.00000000	      6.90051909	     -9.63301546	      6.89037081	    -66.48905829	     14.72775776	     -1.72216354	      0.00000000	    -26.51786391	     11.23683853	    -10.51294475
      6.55500000	     14.62067932	     -5.89726592	     15.35152307	      2.51935204	      0.93742807	     -0.20623069	    -13.81327805	     13.28326208	     -5.41900810	     -8.60729601	     22.56178952	     -4.82350234	      0.00000000	      7.41570872	     -9.25344890	      6.58456465	    -65.78192371	     15.27912046	     -1.41003295	      0.00000000	    -26.67228571	     10.98682039	    -10.06777404
      6.56000000	     14.61284386	     -5.77582948	     15.05293071	      2.52462893	      0.93769706	     -0.20584357	    -14.36203043	     13.17918092	     -5.38208852	     -8.30637635	     22.64748490	     -4.52884394	      0.00000000	      7.91515709	     -8.89380291	      6.27822697	    -64.99595312	     15.80405534	     -1.07099736	      0.00000000	    -26.81523205	     10.74565514	     -9.62870973
      6.56500000	     14.61089546	     -5.66360168	     14.75004245	      2.52992676	      0.93794561	     -0.20546831	    -14.91609307	     13.08046295	     -5.35149251	     -8.00440892	     22.73012444	     -4.24094906	      0.00000000	      8.38454056	     -8.55673038	      5.96153167	    -64.12548828	     16.29534412	     -0.71458278	      0.00000000	    -26.95239505	     10.51706506	     -9.18549036
      6.57000000	     14.63148462	     -5.54742374	     14.42299881	      2.53517374	      0.93821688	     -0.20507602	    -15.49083031	     12.96992639	     -5.29227630	     -7.70848936	     22.76116092	     -3.93612217	      0.00000000	      8.80055431	     -8.22700431	      5.63246659	    -63.16837460	     16.74503726	     -0.36104229	      0.00000000	    -27.13658129	     10.27028228	     -8.70396578
      6.57500000	     14.64451403	     -5.44847523	     14.11993697	      2.54043156	      0.93842731	     -0.20473431	    -16.04713116	     12.87614407	     -5.25414276	     -7.42113895	     22.80942420	     -3.65578123	      0.00000000	      9.21130217	     -7.91910960	      5.32670507	    -62.13843422	     17.18754874	      0.01720317	      0.00000000	    -27.29447130	     10.05893629	     -8.25815060
      6.58000000	     14.64016250	     -5.37010903	     13.83421710	      2.54567003	      0.93856093	     -0.20441392	    -16.56956480	     12.79973778	     -5.23111000	     -7.14802907	     22.87322669	     -3.38747274	      0.00000000	      9.62970290	     -7.63403215	      5.04282880	    -61.04088728	     17.63587503	      0.41028976	      0.00000000	    -27.42592361	      9.87243017	     -7.84392537
